<svg width="46" height="39" viewBox="0 0 46 39" fill="none" xmlns="http://www.w3.org/2000/svg">
<path d="M39.9671 17.3561C35.5648 17.3732 33.9609 19.8159 32.6805 22.8444C30.7867 29.6186 28.0693 35.8018 21.6719 37.4319C29.4835 42.5636 45.3565 34.3604 45.9431 23.6629C46.3605 20.3594 44.4946 17.3057 39.9671 17.3561Z" fill="#008C86"/>
<path d="M31.0108 17.1422C35.3099 17.1422 38.795 13.972 38.795 10.0613C38.795 6.15068 35.3099 2.98047 31.0108 2.98047C26.7117 2.98047 23.2266 6.15068 23.2266 10.0613C23.2266 13.972 26.7117 17.1422 31.0108 17.1422Z" fill="#01D9D1"/>
<path d="M12.8155 36.2906C17.1146 36.2906 20.5997 33.1204 20.5997 29.2098C20.5997 25.2991 17.1146 22.1289 12.8155 22.1289C8.51637 22.1289 5.03125 25.2991 5.03125 29.2098C5.03125 33.1204 8.51637 36.2906 12.8155 36.2906Z" fill="#01D9D1"/>
<path d="M6.033 21.4322C10.4353 21.4151 12.0391 18.9724 13.3196 15.9438C15.2133 9.16969 17.9832 3.2272 24.3806 1.59707C16.569 -3.53459 0.643606 4.42788 0.0569237 15.1254C-0.360398 18.4288 1.50544 21.4826 6.033 21.4322Z" fill="#008C86"/>
</svg>
