<svg width="208" height="43" viewBox="0 0 208 43" fill="none" xmlns="http://www.w3.org/2000/svg">
<path d="M53.66 10.96C53.66 9.57333 53.96 8.34 54.56 7.26C55.16 6.16667 55.9933 5.32 57.06 4.72C58.14 4.10667 59.36 3.8 60.72 3.8C62.3867 3.8 63.8133 4.24 65 5.12C66.1867 6 66.98 7.2 67.38 8.72H63.62C63.34 8.13333 62.94 7.68667 62.42 7.38C61.9133 7.07333 61.3333 6.92 60.68 6.92C59.6267 6.92 58.7733 7.28667 58.12 8.02C57.4667 8.75333 57.14 9.73333 57.14 10.96C57.14 12.1867 57.4667 13.1667 58.12 13.9C58.7733 14.6333 59.6267 15 60.68 15C61.3333 15 61.9133 14.8467 62.42 14.54C62.94 14.2333 63.34 13.7867 63.62 13.2H67.38C66.98 14.72 66.1867 15.92 65 16.8C63.8133 17.6667 62.3867 18.1 60.72 18.1C59.36 18.1 58.14 17.8 57.06 17.2C55.9933 16.5867 55.16 15.74 54.56 14.66C53.96 13.58 53.66 12.3467 53.66 10.96ZM73.8944 3.96V18H70.4744V3.96H73.8944ZM86.1128 15.52H80.8728L80.0328 18H76.4528L81.5328 3.96H85.4928L90.5728 18H86.9528L86.1128 15.52ZM85.2328 12.88L83.4928 7.74L81.7728 12.88H85.2328ZM100.279 18L97.3589 12.7H96.5389V18H93.1189V3.96H98.8589C99.9656 3.96 100.906 4.15333 101.679 4.54C102.466 4.92667 103.052 5.46 103.439 6.14C103.826 6.80667 104.019 7.55333 104.019 8.38C104.019 9.31333 103.752 10.1467 103.219 10.88C102.699 11.6133 101.926 12.1333 100.899 12.44L104.139 18H100.279ZM96.5389 10.28H98.6589C99.2856 10.28 99.7522 10.1267 100.059 9.82C100.379 9.51333 100.539 9.08 100.539 8.52C100.539 7.98667 100.379 7.56667 100.059 7.26C99.7522 6.95333 99.2856 6.8 98.6589 6.8H96.5389V10.28ZM113.806 18.14C112.486 18.14 111.272 17.8333 110.166 17.22C109.072 16.6067 108.199 15.7533 107.546 14.66C106.906 13.5533 106.586 12.3133 106.586 10.94C106.586 9.56667 106.906 8.33333 107.546 7.24C108.199 6.14667 109.072 5.29333 110.166 4.68C111.272 4.06667 112.486 3.76 113.806 3.76C115.126 3.76 116.332 4.06667 117.426 4.68C118.532 5.29333 119.399 6.14667 120.026 7.24C120.666 8.33333 120.986 9.56667 120.986 10.94C120.986 12.3133 120.666 13.5533 120.026 14.66C119.386 15.7533 118.519 16.6067 117.426 17.22C116.332 17.8333 115.126 18.14 113.806 18.14ZM113.806 15.02C114.926 15.02 115.819 14.6467 116.486 13.9C117.166 13.1533 117.506 12.1667 117.506 10.94C117.506 9.7 117.166 8.71333 116.486 7.98C115.819 7.23333 114.926 6.86 113.806 6.86C112.672 6.86 111.766 7.22667 111.086 7.96C110.419 8.69333 110.086 9.68667 110.086 10.94C110.086 12.18 110.419 13.1733 111.086 13.92C111.766 14.6533 112.672 15.02 113.806 15.02Z" fill="black"/>
<path d="M58.528 27.636C59.44 27.636 60.228 27.808 60.892 28.152C61.564 28.488 62.076 28.972 62.428 29.604C62.788 30.236 62.968 30.98 62.968 31.836C62.968 32.692 62.788 33.436 62.428 34.068C62.076 34.692 61.564 35.172 60.892 35.508C60.228 35.836 59.44 36 58.528 36H55.924V27.636H58.528ZM58.528 35.1C59.608 35.1 60.432 34.816 61 34.248C61.568 33.672 61.852 32.868 61.852 31.836C61.852 30.796 61.564 29.984 60.988 29.4C60.42 28.816 59.6 28.524 58.528 28.524H57.016V35.1H58.528ZM67.9004 27.636V36H66.8084V27.636H67.9004ZM78.4975 30.06C78.2655 29.572 77.9295 29.196 77.4895 28.932C77.0495 28.66 76.5375 28.524 75.9535 28.524C75.3695 28.524 74.8415 28.66 74.3695 28.932C73.9055 29.196 73.5375 29.58 73.2655 30.084C73.0015 30.58 72.8695 31.156 72.8695 31.812C72.8695 32.468 73.0015 33.044 73.2655 33.54C73.5375 34.036 73.9055 34.42 74.3695 34.692C74.8415 34.956 75.3695 35.088 75.9535 35.088C76.7695 35.088 77.4415 34.844 77.9695 34.356C78.4975 33.868 78.8055 33.208 78.8935 32.376H75.5575V31.488H80.0575V32.328C79.9935 33.016 79.7775 33.648 79.4095 34.224C79.0415 34.792 78.5575 35.244 77.9575 35.58C77.3575 35.908 76.6895 36.072 75.9535 36.072C75.1775 36.072 74.4695 35.892 73.8295 35.532C73.1895 35.164 72.6815 34.656 72.3055 34.008C71.9375 33.36 71.7535 32.628 71.7535 31.812C71.7535 30.996 71.9375 30.264 72.3055 29.616C72.6815 28.96 73.1895 28.452 73.8295 28.092C74.4695 27.724 75.1775 27.54 75.9535 27.54C76.8415 27.54 77.6255 27.76 78.3055 28.2C78.9935 28.64 79.4935 29.26 79.8055 30.06H78.4975ZM84.9933 27.636V36H83.9013V27.636H84.9933ZM94.4025 27.636V28.524H92.1225V36H91.0305V28.524H88.7385V27.636H94.4025ZM103.091 34.14H99.4427L98.7707 36H97.6187L100.643 27.684H101.903L104.915 36H103.763L103.091 34.14ZM102.779 33.252L101.267 29.028L99.7547 33.252H102.779ZM109.725 35.112H112.653V36H108.633V27.636H109.725V35.112ZM122.903 35.112H125.831V36H121.811V27.636H122.903V35.112ZM134.335 34.14H130.687L130.015 36H128.863L131.887 27.684H133.147L136.159 36H135.007L134.335 34.14ZM134.023 33.252L132.511 29.028L130.999 33.252H134.023ZM144.065 31.692C144.369 31.74 144.645 31.864 144.893 32.064C145.149 32.264 145.349 32.512 145.493 32.808C145.645 33.104 145.721 33.42 145.721 33.756C145.721 34.18 145.613 34.564 145.397 34.908C145.181 35.244 144.865 35.512 144.449 35.712C144.041 35.904 143.557 36 142.997 36H139.877V27.636H142.877C143.445 27.636 143.929 27.732 144.329 27.924C144.729 28.108 145.029 28.36 145.229 28.68C145.429 29 145.529 29.36 145.529 29.76C145.529 30.256 145.393 30.668 145.121 30.996C144.857 31.316 144.505 31.548 144.065 31.692ZM140.969 31.248H142.805C143.317 31.248 143.713 31.128 143.993 30.888C144.273 30.648 144.413 30.316 144.413 29.892C144.413 29.468 144.273 29.136 143.993 28.896C143.713 28.656 143.309 28.536 142.781 28.536H140.969V31.248ZM142.901 35.1C143.445 35.1 143.869 34.972 144.173 34.716C144.477 34.46 144.629 34.104 144.629 33.648C144.629 33.184 144.469 32.82 144.149 32.556C143.829 32.284 143.401 32.148 142.865 32.148H140.969V35.1H142.901ZM152.289 36.084C151.737 36.084 151.241 35.988 150.801 35.796C150.369 35.596 150.029 35.324 149.781 34.98C149.533 34.628 149.405 34.224 149.397 33.768H150.561C150.601 34.16 150.761 34.492 151.041 34.764C151.329 35.028 151.745 35.16 152.289 35.16C152.809 35.16 153.217 35.032 153.513 34.776C153.817 34.512 153.969 34.176 153.969 33.768C153.969 33.448 153.881 33.188 153.705 32.988C153.529 32.788 153.309 32.636 153.045 32.532C152.781 32.428 152.425 32.316 151.977 32.196C151.425 32.052 150.981 31.908 150.645 31.764C150.317 31.62 150.033 31.396 149.793 31.092C149.561 30.78 149.445 30.364 149.445 29.844C149.445 29.388 149.561 28.984 149.793 28.632C150.025 28.28 150.349 28.008 150.765 27.816C151.189 27.624 151.673 27.528 152.217 27.528C153.001 27.528 153.641 27.724 154.137 28.116C154.641 28.508 154.925 29.028 154.989 29.676H153.789C153.749 29.356 153.581 29.076 153.285 28.836C152.989 28.588 152.597 28.464 152.109 28.464C151.653 28.464 151.281 28.584 150.993 28.824C150.705 29.056 150.561 29.384 150.561 29.808C150.561 30.112 150.645 30.36 150.813 30.552C150.989 30.744 151.201 30.892 151.449 30.996C151.705 31.092 152.061 31.204 152.517 31.332C153.069 31.484 153.513 31.636 153.849 31.788C154.185 31.932 154.473 32.16 154.713 32.472C154.953 32.776 155.073 33.192 155.073 33.72C155.073 34.128 154.965 34.512 154.749 34.872C154.533 35.232 154.213 35.524 153.789 35.748C153.365 35.972 152.865 36.084 152.289 36.084Z" fill="#008C87"/>
<path d="M39.9671 17.3561C35.5648 17.3732 33.9609 19.8159 32.6805 22.8444C30.7867 29.6186 28.0693 35.8018 21.6719 37.4319C29.4835 42.5636 45.3565 34.3604 45.9431 23.6629C46.3605 20.3594 44.4946 17.3057 39.9671 17.3561Z" fill="#008C86"/>
<path d="M31.0108 17.1422C35.3099 17.1422 38.795 13.972 38.795 10.0613C38.795 6.15068 35.3099 2.98047 31.0108 2.98047C26.7117 2.98047 23.2266 6.15068 23.2266 10.0613C23.2266 13.972 26.7117 17.1422 31.0108 17.1422Z" fill="#01D9D1"/>
<path d="M12.8155 36.2906C17.1146 36.2906 20.5997 33.1204 20.5997 29.2098C20.5997 25.2991 17.1146 22.1289 12.8155 22.1289C8.51637 22.1289 5.03125 25.2991 5.03125 29.2098C5.03125 33.1204 8.51637 36.2906 12.8155 36.2906Z" fill="#01D9D1"/>
<path d="M6.033 21.4322C10.4353 21.4151 12.0391 18.9724 13.3196 15.9438C15.2133 9.16969 17.9832 3.2272 24.3806 1.59707C16.569 -3.53459 0.643606 4.42788 0.0569237 15.1254C-0.360398 18.4288 1.50544 21.4826 6.033 21.4322Z" fill="#008C86"/>
</svg>
